# xmcd
#
# Track frame offsets:
#	150
#	10231
#	24425
#	46627
#	68553
#	86916
#	101238
#	120335
#	135952
#	153675
#	173179
#	188400
#	207528
#	227232
#	247939
#	261583
#	281448
#	297031
#	320326
#	339316
#
# Disc length: 4721 seconds
#
# Revision: 1
# Processed by: cddbd v1.5.1PL0 Copyright (c) Steve Scherf et al.
# Submitted via: EasyCDDAExtractor 6.2.0.3
#
DISCID=11126f14
DTITLE=Fagner - As 20 Mais
DYEAR=2005
DGENRE=Other
TTITLE0=Vapor Do Luna
TTITLE1=Último Pau-De-Arara
TTITLE2=Juras Secretas
TTITLE3=Lembranças De Um Beijo
TTITLE4=Romance No Deserto
TTITLE5=Borbulhas De Amor
TTITLE6=Cebola Cortada
TTITLE7=Ai Que Saudade D'oce
TTITLE8=Sinal Fechado
TTITLE9=Deslizes
TTITLE10=Conflito
TTITLE11=Cabecinha No Obro
TTITLE12=Fracasso (Part. Esp. Fafá De Belém)
TTITLE13=Último Trem
TTITLE14=Pavor Dos Paraísos
TTITLE15=Macuripe
TTITLE16=Súplica Cearense
TTITLE17=Coração Alado
TTITLE18=Revelação
TTITLE19=Asa Branca
EXTD=by Flávio Abrahão Biasuz
EXTT0=
EXTT1=
EXTT2=
EXTT3=
EXTT4=
EXTT5=
EXTT6=
EXTT7=
EXTT8=
EXTT9=
EXTT10=
EXTT11=
EXTT12=
EXTT13=
EXTT14=
EXTT15=
EXTT16=
EXTT17=
EXTT18=
EXTT19=
PLAYORDER=
